<svg width="60" height="60" viewBox="0 0 60 60" fill="none" xmlns="http://www.w3.org/2000/svg">
<g clip-path="url(#clip0_7268_53023)">
<path d="M30 60C46.5685 60 60 46.5685 60 30C60 13.4315 46.5685 0 30 0C13.4315 0 0 13.4315 0 30C0 46.5685 13.4315 60 30 60Z" fill="white"/>
<path d="M30 17.5862C28.6282 17.5862 27.3126 18.1312 26.3426 19.1012C25.3726 20.0712 24.8276 21.3868 24.8276 22.7586V30C24.8276 31.3718 25.3726 32.6874 26.3426 33.6575C27.3126 34.6275 28.6282 35.1724 30 35.1724C31.3719 35.1724 32.6875 34.6275 33.6575 33.6575C34.6275 32.6874 35.1725 31.3718 35.1725 30V22.7586C35.1725 21.3868 34.6275 20.0712 33.6575 19.1012C32.6875 18.1312 31.3719 17.5862 30 17.5862ZM21.7242 28.9655C21.9985 28.9655 22.2617 29.0745 22.4557 29.2685C22.6497 29.4625 22.7587 29.7256 22.7587 30C22.7587 31.9205 23.5216 33.7624 24.8796 35.1204C26.2376 36.4785 28.0795 37.2414 30 37.2414C31.9206 37.2414 33.7624 36.4785 35.1205 35.1204C36.4785 33.7624 37.2414 31.9205 37.2414 30C37.2414 29.7256 37.3504 29.4625 37.5444 29.2685C37.7384 29.0745 38.0015 28.9655 38.2759 28.9655C38.5503 28.9655 38.8134 29.0745 39.0074 29.2685C39.2014 29.4625 39.3104 29.7256 39.3104 30C39.3108 32.2904 38.467 34.5007 36.9402 36.208C35.4134 37.9154 33.3108 39 31.0345 39.2545V41.3793C31.0345 41.6537 30.9255 41.9168 30.7315 42.1108C30.5375 42.3048 30.2744 42.4138 30 42.4138C29.7257 42.4138 29.4626 42.3048 29.2686 42.1108C29.0745 41.9168 28.9656 41.6537 28.9656 41.3793V39.2545C26.6893 39 24.5867 37.9154 23.0599 36.208C21.5331 34.5007 20.6893 32.2904 20.6897 30C20.6897 29.7256 20.7987 29.4625 20.9927 29.2685C21.1867 29.0745 21.4498 28.9655 21.7242 28.9655Z" fill="#474747"/>
</g>
<defs>
<clipPath id="clip0_7268_53023">
<rect width="60" height="60" fill="white"/>
</clipPath>
</defs>
</svg>
