<svg width="14" height="15" viewBox="0 0 14 15" fill="none" xmlns="http://www.w3.org/2000/svg">
<path d="M3.4582 0.5C3.7493 0.5 3.98528 0.744682 3.98528 1.04651V2.14894C4.45282 2.13954 4.97688 2.13954 5.56654 2.13954H8.37765C8.96731 2.13954 9.49137 2.13954 9.95891 2.14894V1.04651C9.95891 0.744682 10.1949 0.5 10.486 0.5C10.7771 0.5 11.0131 0.744682 11.0131 1.04651V2.19729C12.0246 2.28128 12.6887 2.4874 13.1765 2.99325C13.6644 3.4991 13.8632 4.18763 13.9442 5.23645L14 5.78296H0.647189H0V5.23645C0.0809995 4.18763 0.279789 3.4991 0.767657 2.99325C1.25553 2.4874 1.91958 2.28128 2.93111 2.19729V1.04651C2.93111 0.744682 3.1671 0.5 3.4582 0.5Z" fill="#12192C"/>
<path opacity="0.3" d="M14 8.64795V7.18499C14 6.57125 13.9977 5.47711 13.9887 4.99048H0.00710028C-0.00193091 5.47711 0.000351536 6.57125 0.000351536 7.18499V8.64795C0.000351536 11.4065 0.000351551 12.7858 0.820432 13.6428C1.64051 14.4998 2.96041 14.4998 5.60021 14.4998H8.40014C11.0399 14.4998 12.3598 14.4998 13.1799 13.6428C14 12.7858 14 11.4065 14 8.64795Z" fill="#12192C"/>
</svg>
