<svg width="24" height="24" viewBox="0 0 24 24" fill="none" xmlns="http://www.w3.org/2000/svg">
<path d="M5.92834 0C6.42737 0 6.83191 0.404207 6.83191 0.902821V2.72399C7.6334 2.70846 8.53179 2.70846 9.54263 2.70846H14.3617C15.3725 2.70846 16.2709 2.70846 17.0724 2.72399V0.902821C17.0724 0.404207 17.477 0 17.976 0C18.475 0 18.8796 0.404207 18.8796 0.902821V2.80387C20.6136 2.94261 21.752 3.28311 22.5883 4.11876C23.4247 4.95441 23.7655 6.09184 23.9043 7.82445L24 8.72727H1.10947H0V7.82445C0.138856 6.09184 0.479638 4.95441 1.31598 4.11876C2.15233 3.28311 3.29071 2.94261 5.02477 2.80387V0.902821C5.02477 0.404207 5.42931 0 5.92834 0Z" fill="#C19C23"/>
<path opacity="0.5" d="M24 14.6014V12.2518C24 11.2661 23.9961 9.50883 23.9806 8.72726H0.0121719C-0.00331013 9.50883 0.000602633 11.2661 0.000602633 12.2518V14.6014C0.000602633 19.032 0.000602659 21.2472 1.40645 22.6236C2.81231 24 5.07499 24 9.60036 24H14.4002C18.9256 24 21.1883 24 22.5941 22.6236C24 21.2472 24 19.032 24 14.6014Z" fill="#C19C23"/>
</svg>
