<svg width="44" height="44" viewBox="0 0 44 44" fill="none" xmlns="http://www.w3.org/2000/svg">
<circle opacity="0.08" cx="22" cy="22" r="22" transform="matrix(-1 0 0 1 44 0)" fill="#12192C"/>
<path opacity="0.5" d="M22 34C28.6274 34 34 28.6274 34 22C34 15.3726 28.6274 10 22 10C15.3726 10 10 15.3726 10 22C10 28.6274 15.3726 34 22 34Z" fill="#12192C"/>
<path d="M21.9375 15C22.4553 15 22.875 15.4617 22.875 16.0312V21.1041L25.7254 24.2395C26.0915 24.6423 26.0915 25.2952 25.7254 25.698C25.3593 26.1007 24.7657 26.1007 24.3996 25.698L21.2746 22.2605C21.0988 22.0671 21 21.8048 21 21.5312V16.0312C21 15.4617 21.4197 15 21.9375 15Z" fill="white"/>
</svg>
