<svg width="81" height="55" viewBox="0 0 81 55" fill="none" xmlns="http://www.w3.org/2000/svg">
<rect width="80.9434" height="55" rx="16" fill="#DB1D3A"/>
<path d="M21.4861 33.8258L17.6616 30.036C17.3051 29.6856 17.0265 29.2652 16.8437 28.8016C16.6609 28.338 16.5779 27.8415 16.6001 27.3439C16.6222 26.8463 16.7489 26.3585 16.9722 25.9119C17.1954 25.4652 17.5103 25.0695 17.8966 24.7501C22.2535 21.2775 27.3697 18.8644 32.834 17.7047C37.8777 16.5859 43.1059 16.5808 48.1473 17.6897C53.6319 18.8461 58.7619 21.267 63.1217 24.7562C63.5062 25.0739 63.8195 25.4676 64.0418 25.9122C64.264 26.3568 64.3903 26.8426 64.4126 27.3386C64.4349 27.8346 64.3528 28.3299 64.1714 28.7931C63.9899 29.2564 63.7133 29.6773 63.3589 30.029L59.5268 33.8264C58.913 34.4467 58.0929 34.8251 57.2194 34.8911C56.346 34.9571 55.4787 34.7062 54.7793 34.1851C53.3936 33.1325 51.8919 32.239 50.3029 31.5214C49.6747 31.2395 49.1416 30.785 48.7667 30.2116C48.3919 29.6382 48.1909 28.9701 48.1878 28.2863L48.191 25.0744C43.1809 23.7136 37.8905 23.7188 32.8777 25.0894L32.8745 28.3013C32.8699 28.9851 32.6677 29.6537 32.2917 30.2278C31.9156 30.8019 31.3816 31.2575 30.7529 31.5406C29.1624 32.2613 27.6589 33.1578 26.2711 34.2131C25.5632 34.7414 24.6846 34.9938 23.8024 34.9224C22.9201 34.851 22.0958 34.4607 21.4861 33.8258Z" fill="white"/>
</svg>
