<svg width="24" height="25" viewBox="0 0 24 25" fill="none" xmlns="http://www.w3.org/2000/svg">
<path opacity="0.8" d="M11.7712 6.8014C13.4546 6.7994 15.1039 7.29178 16.5269 8.22118C18.1135 9.2148 19.5207 10.4861 20.6856 11.9781C20.878 12.1888 20.9896 12.4647 20.9993 12.7542C21.009 13.0437 20.9163 13.3269 20.7384 13.5508C19.2227 15.5554 17.2515 17.1422 14.9998 18.1706C13.9002 18.6485 12.7093 18.8596 11.5184 18.7876C10.3276 18.7157 9.16856 18.3626 8.13037 17.7556C6.26626 16.7111 4.62109 15.2949 3.29007 13.589C3.10888 13.3801 3.00608 13.1111 3.00026 12.8306C2.99445 12.5501 3.086 12.2768 3.25836 12.06C4.8506 9.93006 6.96771 8.28164 9.388 7.2874C10.1499 6.98662 10.9558 6.82227 11.7712 6.8014ZM11.9878 16.8109C12.7554 16.8119 13.506 16.5776 14.1446 16.1376C14.7833 15.6976 15.2812 15.0717 15.5754 14.3391C15.8696 13.6065 15.9469 12.8001 15.7974 12.0221C15.6479 11.2441 15.2784 10.5294 14.7357 9.96852C14.1929 9.40764 13.5013 9.02579 12.7485 8.87131C11.9956 8.71682 11.2153 8.79666 10.5064 9.1007C9.79745 9.40475 9.19176 9.91933 8.76597 10.5793C8.34019 11.2393 8.11347 12.015 8.11452 12.8082C8.11869 13.8684 8.52811 14.884 9.25359 15.6337C9.97907 16.3834 10.9618 16.8065 11.9878 16.8109Z" fill="#7B7B7B"/>
<path opacity="0.5" d="M12 15.8013C11.4064 15.8013 10.8262 15.6252 10.3327 15.2954C9.83922 14.9655 9.4547 14.4966 9.22781 13.9481C9.00092 13.3996 8.94185 12.7961 9.05807 12.214C9.17429 11.6319 9.46058 11.0974 9.88071 10.678C10.3008 10.2587 10.8359 9.97344 11.4182 9.85834C12.0006 9.74323 12.6039 9.80346 13.152 10.0314C13.7001 10.2593 14.1682 10.6448 14.4972 11.1388C14.8261 11.6329 15.0011 12.2135 15 12.8071C15.0015 13.2012 14.9249 13.5917 14.7746 13.9561C14.6243 14.3204 14.4033 14.6514 14.1243 14.9298C13.8454 15.2082 13.514 15.4286 13.1494 15.5782C12.7848 15.7278 12.3941 15.8036 12 15.8013Z" fill="#7B7B7B"/>
<line x1="18.1201" y1="6.49822" x2="6.69682" y2="22.6812" stroke="white" stroke-linecap="round"/>
<line x1="18.1201" y1="5.49822" x2="6.69682" y2="21.6812" stroke="#7B7B7B" stroke-linecap="round"/>
</svg>
