<svg width="36" height="36" viewBox="0 0 36 36" fill="none" xmlns="http://www.w3.org/2000/svg">
<circle cx="18" cy="18" r="18" fill="white"/>
<path d="M15.848 12.1875C16.3139 12.1835 16.6885 11.8026 16.6845 11.3366C16.6806 10.8706 16.2996 10.4961 15.8337 10.5C14.8766 10.5081 14.06 10.5378 13.3823 10.6705C12.681 10.8079 12.0699 11.0661 11.568 11.568C11.0661 12.0699 10.8079 12.681 10.6705 13.3823C10.5378 14.06 10.5081 14.8766 10.5 15.8337C10.4961 16.2996 10.8706 16.6806 11.3366 16.6845C11.8026 16.6885 12.1835 16.3139 12.1875 15.848C12.1956 14.8851 12.2274 14.2126 12.3265 13.7067C12.421 13.2243 12.5651 12.9573 12.7612 12.7612C12.9573 12.5651 13.2243 12.421 13.7067 12.3265C14.2126 12.2274 14.8851 12.1956 15.848 12.1875Z" fill="#474747"/>
<path d="M20.3511 10.5C19.8851 10.4961 19.5042 10.8706 19.5002 11.3366C19.4963 11.8026 19.8708 12.1835 20.3368 12.1875C21.2996 12.1956 21.9721 12.2274 22.4781 12.3265C22.9605 12.421 23.2275 12.5651 23.4235 12.7612C23.6196 12.9573 23.7637 13.2243 23.8582 13.7067C23.9573 14.2126 23.9891 14.8851 23.9973 15.848C24.0012 16.3139 24.3822 16.6885 24.8481 16.6845C25.3141 16.6806 25.6887 16.2996 25.6847 15.8337C25.6766 14.8766 25.647 14.06 25.5142 13.3823C25.3769 12.681 25.1187 12.0699 24.6168 11.568C24.1149 11.0661 23.5037 10.8079 22.8025 10.6705C22.1247 10.5378 21.3081 10.5081 20.3511 10.5Z" fill="#474747"/>
<path d="M12.1875 20.3373C12.1835 19.8713 11.8026 19.4968 11.3366 19.5008C10.8706 19.5047 10.4961 19.8857 10.5 20.3516C10.5081 21.3087 10.5378 22.1253 10.6705 22.803C10.8079 23.5043 11.0661 24.1154 11.568 24.6173C12.0699 25.1192 12.681 25.3774 13.3823 25.5148C14.06 25.6475 14.8766 25.6771 15.8337 25.6853C16.2996 25.6892 16.6806 25.3147 16.6845 24.8487C16.6885 24.3827 16.3139 24.0018 15.848 23.9978C14.8851 23.9897 14.2126 23.9578 13.7067 23.8587C13.2243 23.7642 12.9573 23.6201 12.7612 23.4241C12.5651 23.228 12.421 22.961 12.3265 22.4786C12.2274 21.9727 12.1956 21.3002 12.1875 20.3373Z" fill="#474747"/>
<path d="M25.6847 20.3516C25.6887 19.8857 25.3141 19.5047 24.8481 19.5008C24.3822 19.4968 24.0012 19.8713 23.9973 20.3373C23.9891 21.3002 23.9573 21.9727 23.8582 22.4786C23.7637 22.961 23.6196 23.228 23.4235 23.4241C23.2275 23.6201 22.9605 23.7642 22.4781 23.8587C21.9721 23.9578 21.2996 23.9897 20.3368 23.9978C19.8708 24.0018 19.4963 24.3827 19.5002 24.8487C19.5042 25.3147 19.8851 25.6892 20.3511 25.6853C21.3081 25.6771 22.1247 25.6475 22.8025 25.5148C23.5037 25.3774 24.1149 25.1192 24.6168 24.6173C25.1187 24.1154 25.3769 23.5043 25.5142 22.803C25.647 22.1253 25.6766 21.3087 25.6847 20.3516Z" fill="#474747"/>
</svg>
