<svg width="60" height="60" viewBox="0 0 60 60" fill="none" xmlns="http://www.w3.org/2000/svg">
<circle cx="30" cy="30" r="30" fill="#07B62A"/>
<path d="M27.3017 20.8097L28.1941 22.4088C28.9994 23.8518 28.6761 25.7448 27.4077 27.0132C27.4077 27.0132 27.4077 27.0132 27.4077 27.0132C27.4076 27.0133 25.8693 28.5519 28.6587 31.3413C31.4474 34.13 32.986 32.5931 32.9868 32.5923C32.9868 32.5923 32.9868 32.5923 32.9868 32.5922C34.2552 31.3239 36.1482 31.0006 37.5912 31.8059L39.1903 32.6983C41.3693 33.9144 41.6266 36.9702 39.7113 38.8855C38.5604 40.0364 37.1506 40.9319 35.592 40.991C32.9683 41.0905 28.5126 40.4265 24.0431 35.9569C19.5736 31.4874 18.9095 27.0317 19.009 24.408C19.0681 22.8495 19.9636 21.4396 21.1145 20.2887C23.0298 18.3734 26.0856 18.6307 27.3017 20.8097Z" fill="white"/>
</svg>
