<svg width="116" height="116" viewBox="0 0 116 116" fill="none" xmlns="http://www.w3.org/2000/svg">
<circle opacity="0.03" cx="58" cy="58" r="58" fill="#12192C"/>
<path d="M46.5186 38.2333L48.9392 42.5707C51.1237 46.485 50.2468 51.6199 46.8062 55.0605C46.8062 55.0605 46.8062 55.0605 46.8062 55.0605C46.8061 55.0606 42.633 59.2339 50.1995 66.8005C57.7653 74.3663 61.9387 70.1946 61.9395 70.1938C61.9396 70.1938 61.9396 70.1938 61.9396 70.1938C65.3802 66.7532 70.515 65.8763 74.4293 68.0608L78.7667 70.4814C84.6773 73.7801 85.3754 82.0691 80.1801 87.2644C77.0583 90.3862 73.2339 92.8153 69.0063 92.9756C61.8895 93.2454 49.8033 91.4442 37.6795 79.3205C25.5558 67.1967 23.7546 55.1105 24.0244 47.9937C24.1847 43.7661 26.6138 39.9418 29.7356 36.82C34.9309 31.6246 43.2199 32.3227 46.5186 38.2333Z" fill="#A1A1A1"/>
<path d="M57.603 26.3491C57.85 24.8241 59.2921 23.7895 60.8176 24.0364C60.9121 24.0545 61.2159 24.1113 61.3751 24.1467C61.6934 24.2176 62.1375 24.3267 62.6912 24.4879C63.7984 24.8103 65.3453 25.3415 67.2018 26.1924C70.9188 27.896 75.8652 30.8761 80.9982 36.0076C86.1311 41.1391 89.1121 46.0841 90.8162 49.8C91.6674 51.656 92.1986 53.2024 92.5211 54.3093C92.6824 54.8629 92.7916 55.3068 92.8625 55.6251C92.8979 55.7842 92.9238 55.912 92.9419 56.0064L92.9634 56.1228C93.2103 57.6478 92.1849 59.1492 90.6594 59.3961C89.1382 59.6423 87.7052 58.6127 87.4522 57.0948C87.4444 57.054 87.423 56.9445 87.4 56.8413C87.354 56.6347 87.2743 56.3071 87.1481 55.8739C86.8956 55.0073 86.4571 53.7193 85.729 52.1316C84.2746 48.9601 81.6593 44.5806 77.041 39.9637C72.4227 35.3467 68.0419 32.7321 64.8696 31.2781C63.2814 30.5502 61.993 30.1118 61.1262 29.8594C60.6928 29.7332 60.1482 29.6082 59.9415 29.5622C58.4232 29.3093 57.3568 27.8699 57.603 26.3491Z" fill="#A1A1A1"/>
<path fill-rule="evenodd" clip-rule="evenodd" d="M58.4471 39.215C58.8717 37.7295 60.4204 36.8693 61.9063 37.2938L61.1376 39.9835C61.9063 37.2938 61.9063 37.2938 61.9063 37.2938L61.9117 37.2953L61.9174 37.2969L61.9299 37.3006L61.9588 37.3092L62.0326 37.3322C62.0889 37.3502 62.1591 37.3736 62.2429 37.4033C62.4104 37.4628 62.6319 37.5473 62.9035 37.6637C63.4471 37.8966 64.1897 38.2562 65.102 38.7959C66.9281 39.8764 69.421 41.6711 72.3497 44.5989C75.2783 47.5267 77.0735 50.0189 78.1543 51.8445C78.6942 52.7565 79.0539 53.4989 79.2868 54.0423C79.4033 54.3139 79.4878 54.5353 79.5473 54.7028C79.577 54.7865 79.6004 54.8567 79.6184 54.913L79.6414 54.9868L79.65 55.0157L79.6537 55.0281L79.6553 55.0338C79.6553 55.0338 79.6569 55.0392 76.9664 55.8077L79.6569 55.0392C80.0814 56.5247 79.221 58.073 77.7351 58.4974C76.2618 58.9183 74.7267 58.0762 74.2869 56.6139L74.2732 56.5737C74.2533 56.5177 74.2121 56.4073 74.143 56.2462C74.005 55.9242 73.7546 55.3974 73.3382 54.694C72.5063 53.2888 71.0039 51.1656 68.3925 48.5549C65.781 45.9442 63.6572 44.4422 62.2517 43.6106C61.548 43.1943 61.0211 42.944 60.699 42.806C60.5378 42.737 60.4275 42.6958 60.3714 42.6759L60.3312 42.6621C58.8685 42.2225 58.0262 40.6879 58.4471 39.215Z" fill="#A1A1A1"/>
</svg>
