<svg width="20" height="19" viewBox="0 0 20 19" fill="none" xmlns="http://www.w3.org/2000/svg">
<path d="M11.5 1C11.5 1 13.425 1.175 15.875 3.625C18.325 6.075 18.5 8 18.5 8" stroke="white" stroke-width="1.4" stroke-linecap="round"/>
<path d="M11.5 4C11.5 4 12.4333 4.26667 13.8333 5.66667C15.2333 7.06667 15.5 8 15.5 8" stroke="white" stroke-width="1.4" stroke-linecap="round"/>
<path d="M7.16024 4.23391L7.76869 5.32416C8.31778 6.30805 8.09736 7.59874 7.23254 8.46356C7.23254 8.46356 7.23254 8.46356 7.23254 8.46357C7.23242 8.46368 6.18364 9.51268 8.08548 11.4145C9.98666 13.3157 11.0356 12.2683 11.0364 12.2675C11.0365 12.2674 11.0364 12.2674 11.0365 12.2674C11.9013 11.4026 13.192 11.1822 14.1758 11.7313L15.2661 12.3398C16.7518 13.1689 16.9272 15.2524 15.6213 16.5583C14.8367 17.343 13.8754 17.9536 12.8127 17.9939C11.0239 18.0617 7.98589 17.6089 4.93847 14.5615C1.89106 11.5141 1.43833 8.47615 1.50614 6.68727C1.54643 5.62463 2.157 4.66335 2.94169 3.87865C4.24758 2.57276 6.3311 2.74822 7.16024 4.23391Z" stroke="white" stroke-width="1.4" stroke-linecap="round"/>
</svg>
