<svg width="141" height="141" viewBox="0 0 141 141" fill="none" xmlns="http://www.w3.org/2000/svg">
<circle cx="70.5" cy="70.5" r="69" fill="#D9D9D9" stroke="white" stroke-width="3"/>
<path d="M69.7674 100.488H56.3165C54.2927 100.557 52.29 100.066 50.5374 99.0701C49.2356 98.3326 48.1515 97.2756 47.3917 96.0028C46.6318 94.73 46.2222 93.2851 46.203 91.81C45.9394 87.5943 46.5843 83.3714 48.0957 79.4168C49.5405 75.6734 52.0544 72.8799 56.2731 72.0008C57.0554 71.774 57.8795 71.7225 58.6847 71.8501C59.4899 71.9777 60.2556 72.2812 60.9253 72.7381C62.7948 74.1504 64.9383 75.1733 67.2246 75.7443C70.4205 76.4102 73.755 75.836 76.529 74.1419C77.0735 73.8626 77.591 73.5351 78.0749 73.1635C80.0832 71.4903 82.2937 71.6746 84.5765 72.4404C86.199 73.0324 87.6615 73.9821 88.8513 75.2162C90.0411 76.4503 90.9264 77.9359 91.4392 79.5586C92.9883 83.6601 93.5903 88.048 93.2018 92.4056C93.0183 94.4282 92.1237 96.3252 90.6712 97.7714C89.2188 99.2176 87.2991 100.123 85.241 100.332C84.2297 100.431 83.2184 100.474 82.207 100.474C78.0894 100.502 73.8995 100.488 69.7674 100.488Z" fill="#7B7B7B"/>
<path d="M69.7166 70.2432C67.0764 70.2404 64.4965 69.4536 62.304 67.9827C60.1115 66.5118 58.4052 64.423 57.4013 61.9811C56.3975 59.5392 56.1413 56.8542 56.6654 54.2666C57.1894 51.679 58.47 49.3052 60.3448 47.4463C62.2197 45.5874 64.6043 44.327 67.1963 43.825C69.7883 43.323 72.471 43.6019 74.9043 44.6265C77.3376 45.6511 79.4119 47.3751 80.8641 49.5799C82.3164 51.7848 83.0812 54.3713 83.0616 57.0114C83.0598 58.758 82.7125 60.4871 82.0399 62.099C81.3672 63.7109 80.3823 65.1739 79.142 66.4037C77.9017 67.6335 76.4304 68.6058 74.8128 69.2648C73.1952 69.9237 71.4632 70.2563 69.7166 70.2432Z" fill="#7B7B7B"/>
</svg>
