<svg width="36" height="36" viewBox="0 0 36 36" fill="none" xmlns="http://www.w3.org/2000/svg">
<circle cx="18" cy="18" r="18" fill="white"/>
<path d="M8.00004 21.0562C8.00529 20.4377 8.51096 19.9405 9.1295 19.9457C10.3999 19.9565 11.4839 19.9958 12.3835 20.172C13.3143 20.3544 14.1256 20.6971 14.7918 21.3633C15.4581 22.0295 15.8008 22.8408 15.9831 23.7717C16.1593 24.6713 16.1986 25.7553 16.2094 27.0256C16.2146 27.6442 15.7175 28.1498 15.0989 28.1551C14.4804 28.1603 13.9747 27.6632 13.9695 27.0446C13.9586 25.7665 13.9164 24.8738 13.7849 24.2022C13.6594 23.5619 13.4682 23.2075 13.2079 22.9472C12.9477 22.687 12.5932 22.4957 11.9529 22.3703C11.2813 22.2387 10.3886 22.1965 9.11051 22.1856C8.49197 22.1804 7.9948 21.6747 8.00004 21.0562Z" fill="#474747"/>
<path d="M15.0989 8.00004C15.7175 8.00529 16.2146 8.51096 16.2094 9.1295C16.1986 10.3999 16.1593 11.4839 15.9831 12.3835C15.8008 13.3143 15.4581 14.1256 14.7918 14.7918C14.1256 15.4581 13.3143 15.8008 12.3835 15.9831C11.4839 16.1593 10.3999 16.1986 9.1295 16.2094C8.51096 16.2146 8.00529 15.7175 8.00004 15.0989C7.9948 14.4804 8.49197 13.9747 9.11051 13.9695C10.3886 13.9586 11.2813 13.9164 11.9529 13.7849C12.5932 13.6594 12.9477 13.4682 13.2079 13.2079C13.4682 12.9477 13.6594 12.5932 13.7849 11.9529C13.9164 11.2813 13.9586 10.3886 13.9695 9.11051C13.9747 8.49197 14.4804 7.9948 15.0989 8.00004Z" fill="#474747"/>
<path d="M21.0569 8.00004C21.6755 7.9948 22.1811 8.49197 22.1864 9.11051C22.1972 10.3886 22.2394 11.2813 22.371 11.9529C22.4964 12.5932 22.6877 12.9477 22.948 13.2079C23.2082 13.4682 23.5626 13.6594 24.203 13.7849C24.8746 13.9164 25.7672 13.9586 27.0454 13.9695C27.6639 13.9747 28.1611 14.4804 28.1558 15.0989C28.1506 15.7175 27.6449 16.2146 27.0264 16.2094C25.756 16.1986 24.672 16.1593 23.7724 15.9831C22.8415 15.8008 22.0303 15.4581 21.364 14.7918C20.6978 14.1256 20.3551 13.3143 20.1728 12.3835C19.9966 11.4839 19.9572 10.3999 19.9465 9.1295C19.9412 8.51096 20.4384 8.00529 21.0569 8.00004Z" fill="#474747"/>
<path d="M28.1558 21.0562C28.1611 21.6747 27.6639 22.1804 27.0454 22.1856C25.7672 22.1965 24.8746 22.2387 24.203 22.3703C23.5626 22.4957 23.2082 22.687 22.948 22.9472C22.6877 23.2075 22.4964 23.5619 22.371 24.2022C22.2394 24.8738 22.1972 25.7665 22.1864 27.0446C22.1811 27.6632 21.6755 28.1603 21.0569 28.1551C20.4384 28.1498 19.9412 27.6442 19.9465 27.0256C19.9572 25.7553 19.9966 24.6713 20.1728 23.7717C20.3551 22.8408 20.6978 22.0295 21.364 21.3633C22.0303 20.6971 22.8415 20.3544 23.7724 20.172C24.672 19.9958 25.756 19.9565 27.0264 19.9457C27.6449 19.9405 28.1506 20.4377 28.1558 21.0562Z" fill="#474747"/>
</svg>
