<svg width="55" height="55" viewBox="0 0 55 55" fill="none" xmlns="http://www.w3.org/2000/svg">
<circle cx="27.5" cy="27.5" r="26" fill="#D9D9D9" stroke="white" stroke-width="3"/>
<path d="M27.2142 39.1975H21.9674C21.178 39.2244 20.3968 39.0327 19.7131 38.6444C19.2053 38.3567 18.7825 37.9444 18.4861 37.4479C18.1897 36.9514 18.0299 36.3878 18.0224 35.8125C17.9196 34.168 18.1712 32.5208 18.7607 30.9782C19.3243 29.518 20.3049 28.4284 21.9505 28.0854C22.2556 27.997 22.5771 27.9769 22.8912 28.0267C23.2053 28.0765 23.5039 28.1948 23.7652 28.3731C24.4944 28.9239 25.3305 29.3229 26.2223 29.5457C27.469 29.8054 28.7697 29.5814 29.8517 28.9206C30.0641 28.8117 30.266 28.6839 30.4547 28.539C31.2381 27.8863 32.1004 27.9582 32.9908 28.2569C33.6237 28.4879 34.1942 28.8583 34.6583 29.3397C35.1224 29.8211 35.4677 30.4006 35.6677 31.0335C36.272 32.6334 36.5068 34.345 36.3553 36.0448C36.2837 36.8337 35.9347 37.5737 35.3682 38.1378C34.8016 38.7019 34.0528 39.0551 33.25 39.1367C32.8555 39.1754 32.461 39.192 32.0665 39.192C30.4604 39.2031 28.826 39.1975 27.2142 39.1975Z" fill="#7B7B7B"/>
<path d="M27.1943 27.3999C26.1645 27.3987 25.1581 27.0918 24.3029 26.5181C23.4477 25.9443 22.7821 25.1295 22.3905 24.177C21.999 23.2245 21.899 22.1772 22.1035 21.1678C22.3079 20.1585 22.8074 19.2325 23.5387 18.5074C24.27 17.7823 25.2002 17.2907 26.2113 17.0949C27.2223 16.899 28.2688 17.0079 29.2179 17.4075C30.1671 17.8072 30.9762 18.4796 31.5427 19.3397C32.1092 20.1998 32.4075 21.2087 32.3999 22.2385C32.3992 22.9198 32.2637 23.5943 32.0013 24.223C31.7389 24.8518 31.3547 25.4224 30.8709 25.9022C30.3871 26.3819 29.8132 26.7612 29.1822 27.0182C28.5512 27.2752 27.8757 27.4049 27.1943 27.3999Z" fill="#7B7B7B"/>
</svg>
