<svg width="60" height="60" viewBox="0 0 60 60" fill="none" xmlns="http://www.w3.org/2000/svg">
<g clip-path="url(#clip0_7268_53020)">
<path d="M30.4362 60C46.7331 60 59.9444 46.5685 59.9444 30C59.9444 13.4315 46.7331 0 30.4362 0C14.1392 0 0.927979 13.4315 0.927979 30C0.927979 46.5685 14.1392 60 30.4362 60Z" fill="white"/>
<path d="M19.3706 29.4531V30.5469C19.3706 34.1426 19.3706 35.9404 20.3753 37.1505C20.5592 37.372 20.7647 37.5751 20.9888 37.7569C22.213 38.75 24.0319 38.75 27.6698 38.75C31.3076 38.75 33.1264 38.75 34.3506 37.7569C34.5748 37.5751 34.7803 37.372 34.9642 37.1505C35.7406 36.2155 35.917 34.9295 35.9572 32.7344L36.6974 33.0944C38.8506 34.1586 39.9273 34.6907 40.7145 34.2098C41.5018 33.7289 41.5018 32.5391 41.5018 30.1596V29.8404C41.5018 27.4609 41.5018 26.2711 40.7145 25.7902C39.9273 25.3093 38.8506 25.8414 36.6974 26.9056L35.9572 27.2656C35.917 25.0705 35.7406 23.7845 34.9642 22.8495C34.7803 22.628 34.5748 22.4249 34.3506 22.2431C33.1264 21.25 31.3076 21.25 27.6698 21.25C24.0319 21.25 22.213 21.25 20.9888 22.2431C20.7647 22.4249 20.5592 22.628 20.3753 22.8495C19.3706 24.0596 19.3706 25.8574 19.3706 29.4531Z" fill="#474747"/>
</g>
<defs>
<clipPath id="clip0_7268_53020">
<rect width="60" height="60" fill="white"/>
</clipPath>
</defs>
</svg>
