<svg width="60" height="60" viewBox="0 0 60 60" fill="none" xmlns="http://www.w3.org/2000/svg">
<circle cx="30" cy="30" r="30" fill="#07B62A"/>
<path d="M18.75 29.4531V30.5469C18.75 34.1426 18.75 35.9404 19.7715 37.1505C19.9584 37.372 20.1674 37.5751 20.3952 37.7569C21.6399 38.75 23.4891 38.75 27.1875 38.75C30.8859 38.75 32.7351 38.75 33.9798 37.7569C34.2076 37.5751 34.4166 37.372 34.6035 37.1505C35.3928 36.2155 35.5722 34.9295 35.613 32.7344L36.3657 33.0944C38.5548 34.1586 39.6493 34.6907 40.4497 34.2098C41.25 33.7289 41.25 32.5391 41.25 30.1596V29.8404C41.25 27.4609 41.25 26.2711 40.4497 25.7902C39.6493 25.3093 38.5548 25.8414 36.3657 26.9056L35.613 27.2656C35.5722 25.0705 35.3928 23.7845 34.6035 22.8495C34.4166 22.628 34.2076 22.4249 33.9798 22.2431C32.7351 21.25 30.8859 21.25 27.1875 21.25C23.4891 21.25 21.6399 21.25 20.3952 22.2431C20.1674 22.4249 19.9584 22.628 19.7715 22.8495C18.75 24.0596 18.75 25.8574 18.75 29.4531Z" fill="white"/>
</svg>
