<svg width="18" height="12" viewBox="0 0 18 12" fill="none" xmlns="http://www.w3.org/2000/svg">
<path opacity="0.8" d="M8.77116 6.07542e-06C10.4546 -0.00199504 12.1039 0.490388 13.5269 1.41979C15.1135 2.41341 16.5207 3.68468 17.6856 5.17675C17.878 5.38736 17.9896 5.66327 17.9993 5.95278C18.009 6.24229 17.9163 6.52553 17.7384 6.74943C16.2227 8.75399 14.2515 10.3409 11.9998 11.3692C10.9002 11.8471 9.70927 12.0582 8.51843 11.9863C7.3276 11.9143 6.16856 11.5612 5.13037 10.9542C3.26626 9.90967 1.62109 8.49352 0.290066 6.78765C0.108884 6.57874 0.00607678 6.30969 0.000260959 6.02922C-0.00555487 5.74875 0.0860048 5.4754 0.258361 5.25866C1.8506 3.12867 3.96771 1.48025 6.388 0.486008C7.14989 0.185229 7.95582 0.020874 8.77116 6.07542e-06ZM8.98782 10.0095C9.75538 10.0105 10.506 9.77625 11.1446 9.33624C11.7833 8.89624 12.2812 8.27031 12.5754 7.53769C12.8696 6.80507 12.9469 5.99872 12.7974 5.2207C12.6479 4.44269 12.2784 3.728 11.7357 3.16712C11.1929 2.60625 10.5013 2.2244 9.74848 2.06991C8.99561 1.91543 8.21532 1.99527 7.50639 2.29931C6.79745 2.60336 6.19176 3.11794 5.76597 3.77791C5.34019 4.43788 5.11347 5.21357 5.11452 6.00677C5.11869 7.06702 5.52811 8.08262 6.25359 8.83234C6.97907 9.58206 7.96184 10.0052 8.98782 10.0095Z" fill="#7B7B7B"/>
</svg>
